<svg width="11" height="12" viewBox="0 0 11 12" fill="none" xmlns="http://www.w3.org/2000/svg">
<path d="M10.061 2.42617C9.47073 1.89003 8.77317 1.53261 7.27073 1.53261H6.38537L7.2439 0.63905C7.40488 0.485868 7.37805 0.230566 7.21707 0.102915C7.0561 -0.0502663 6.78781 -0.0247361 6.65366 0.128445L5.5 1.30284L4.34634 0.128445C4.18537 -0.0247361 3.9439 -0.0247361 3.78293 0.102915C3.62195 0.256096 3.59512 0.485868 3.7561 0.63905L4.61463 1.53261H3.72927C2.22683 1.53261 1.52927 1.89003 0.939024 2.42617C0.37561 2.98783 0 3.65162 0 5.08131V8.42577C0 9.88099 0.37561 10.5448 0.939024 11.1064C1.52927 11.6426 2.22683 12 3.72927 12H7.2439C8.77317 12 9.47073 11.6426 10.061 11.1064C10.6244 10.5448 11 9.88099 11 8.4513V5.10684C11 3.65162 10.6244 2.98783 10.061 2.42617ZM10.1951 8.4513C10.1951 9.77887 9.84634 10.2384 9.49756 10.5703C9.12195 10.9022 8.63902 11.2341 7.2439 11.2341H3.72927C2.33415 11.2341 1.85122 10.9022 1.50244 10.5703C1.15366 10.2129 0.804878 9.75334 0.804878 8.42577V5.10684C0.804878 3.77927 1.15366 3.31972 1.50244 2.98783C1.87805 2.65594 2.36098 2.32404 3.7561 2.32404H7.27073C8.66585 2.32404 9.14878 2.65594 9.49756 2.98783C9.84634 3.34525 10.1951 3.8048 10.1951 5.13237V8.4513ZM8.3439 6.2557L5.90244 6.97055V6.02593C5.90244 5.89828 5.84878 5.79615 5.74146 5.71956C5.63415 5.64297 5.5 5.61744 5.39268 5.6685L2.41463 6.53653C2.2 6.58759 2.09268 6.81736 2.14634 7.02161C2.2 7.22585 2.44146 7.32797 2.6561 7.27691L5.09756 6.56206V7.50668C5.09756 7.63433 5.15122 7.73645 5.25854 7.81304C5.33902 7.8641 5.41951 7.88963 5.5 7.88963C5.52683 7.88963 5.58049 7.88963 5.60732 7.8641L8.58537 6.99608C8.8 6.94502 8.90732 6.71524 8.85366 6.511C8.8 6.30676 8.55854 6.20464 8.3439 6.2557Z" fill="#8E8E8E"/>
</svg>
